<mxfile host="app.diagrams.net" agent="Mozilla/5.0 (Windows NT 10.0; Win64; x64) AppleWebKit/537.36 (KHTML, like Gecko) Chrome/134.0.0.0 Safari/537.36" version="26.2.0">
  <diagram name="Page-1" id="t9XRG6U2mxt3_7OKMjJ7">
    <mxGraphModel dx="3147" dy="2302" grid="1" gridSize="10" guides="1" tooltips="1" connect="1" arrows="1" fold="1" page="1" pageScale="1" pageWidth="827" pageHeight="1169" math="0" shadow="0">
      <root>
        <mxCell id="0" />
        <mxCell id="1" parent="0" />
        <mxCell id="Wr6ySs2WMsucKlqp8gCn-1" value="" style="rounded=0;whiteSpace=wrap;html=1;" vertex="1" parent="1">
          <mxGeometry x="170" width="630" height="600" as="geometry" />
        </mxCell>
        <mxCell id="Wr6ySs2WMsucKlqp8gCn-2" value="Management Inventory" style="ellipse;whiteSpace=wrap;html=1;" vertex="1" parent="1">
          <mxGeometry x="660" y="70" width="90" height="60" as="geometry" />
        </mxCell>
        <mxCell id="Wr6ySs2WMsucKlqp8gCn-3" value="View Product" style="ellipse;whiteSpace=wrap;html=1;" vertex="1" parent="1">
          <mxGeometry x="620" y="210" width="90" height="60" as="geometry" />
        </mxCell>
        <mxCell id="Wr6ySs2WMsucKlqp8gCn-4" value="login" style="ellipse;whiteSpace=wrap;html=1;" vertex="1" parent="1">
          <mxGeometry x="300" y="190" width="90" height="60" as="geometry" />
        </mxCell>
        <mxCell id="Wr6ySs2WMsucKlqp8gCn-5" value="Add Product" style="ellipse;whiteSpace=wrap;html=1;" vertex="1" parent="1">
          <mxGeometry x="520" y="30" width="90" height="60" as="geometry" />
        </mxCell>
        <mxCell id="Wr6ySs2WMsucKlqp8gCn-6" value="register" style="ellipse;whiteSpace=wrap;html=1;" vertex="1" parent="1">
          <mxGeometry x="300" y="80" width="90" height="60" as="geometry" />
        </mxCell>
        <mxCell id="Wr6ySs2WMsucKlqp8gCn-7" value="Update Product" style="ellipse;whiteSpace=wrap;html=1;" vertex="1" parent="1">
          <mxGeometry x="737" y="210" width="90" height="60" as="geometry" />
        </mxCell>
        <mxCell id="Wr6ySs2WMsucKlqp8gCn-8" value="Place Purchase Order" style="ellipse;whiteSpace=wrap;html=1;" vertex="1" parent="1">
          <mxGeometry x="250" y="460" width="90" height="60" as="geometry" />
        </mxCell>
        <mxCell id="Wr6ySs2WMsucKlqp8gCn-9" value="Delete Product" style="ellipse;whiteSpace=wrap;html=1;" vertex="1" parent="1">
          <mxGeometry x="530" y="140" width="90" height="60" as="geometry" />
        </mxCell>
        <mxCell id="Wr6ySs2WMsucKlqp8gCn-10" value="Generate Report&amp;nbsp;" style="ellipse;whiteSpace=wrap;html=1;" vertex="1" parent="1">
          <mxGeometry x="600" y="430" width="90" height="60" as="geometry" />
        </mxCell>
        <mxCell id="Wr6ySs2WMsucKlqp8gCn-11" value="View Purchase Order" style="ellipse;whiteSpace=wrap;html=1;" vertex="1" parent="1">
          <mxGeometry x="270" y="360" width="90" height="60" as="geometry" />
        </mxCell>
        <mxCell id="Wr6ySs2WMsucKlqp8gCn-12" value="Make Payment" style="ellipse;whiteSpace=wrap;html=1;" vertex="1" parent="1">
          <mxGeometry x="410" y="290" width="90" height="60" as="geometry" />
        </mxCell>
        <mxCell id="Wr6ySs2WMsucKlqp8gCn-13" value="Sales Management" style="ellipse;whiteSpace=wrap;html=1;" vertex="1" parent="1">
          <mxGeometry x="690" y="320" width="90" height="60" as="geometry" />
        </mxCell>
        <mxCell id="Wr6ySs2WMsucKlqp8gCn-14" value="Registered Customer" style="shape=umlActor;verticalLabelPosition=bottom;verticalAlign=top;html=1;outlineConnect=0;" vertex="1" parent="1">
          <mxGeometry x="80" y="260" width="30" height="60" as="geometry" />
        </mxCell>
        <mxCell id="Wr6ySs2WMsucKlqp8gCn-15" value="Actor" style="shape=umlActor;verticalLabelPosition=bottom;verticalAlign=top;html=1;outlineConnect=0;" vertex="1" parent="1">
          <mxGeometry x="-80" y="190" width="30" height="60" as="geometry" />
        </mxCell>
        <mxCell id="Wr6ySs2WMsucKlqp8gCn-16" value="Customer" style="shape=umlActor;verticalLabelPosition=bottom;verticalAlign=top;html=1;outlineConnect=0;" vertex="1" parent="1">
          <mxGeometry x="60" y="120" width="30" height="60" as="geometry" />
        </mxCell>
        <mxCell id="Wr6ySs2WMsucKlqp8gCn-17" value="Staff" style="shape=umlActor;verticalLabelPosition=bottom;verticalAlign=top;html=1;outlineConnect=0;" vertex="1" parent="1">
          <mxGeometry x="60" y="-80" width="30" height="60" as="geometry" />
        </mxCell>
        <mxCell id="Wr6ySs2WMsucKlqp8gCn-18" value="Admin" style="shape=umlActor;verticalLabelPosition=bottom;verticalAlign=top;html=1;outlineConnect=0;" vertex="1" parent="1">
          <mxGeometry x="890" y="120" width="30" height="60" as="geometry" />
        </mxCell>
        <mxCell id="Wr6ySs2WMsucKlqp8gCn-46" value="" style="endArrow=none;html=1;rounded=0;exitX=0.5;exitY=0.5;exitDx=0;exitDy=0;exitPerimeter=0;entryX=0;entryY=0.5;entryDx=0;entryDy=0;" edge="1" parent="1" source="Wr6ySs2WMsucKlqp8gCn-16" target="Wr6ySs2WMsucKlqp8gCn-6">
          <mxGeometry width="50" height="50" relative="1" as="geometry">
            <mxPoint x="-150" y="310" as="sourcePoint" />
            <mxPoint x="-100" y="260" as="targetPoint" />
          </mxGeometry>
        </mxCell>
        <mxCell id="Wr6ySs2WMsucKlqp8gCn-47" value="" style="endArrow=none;html=1;rounded=0;entryX=0.073;entryY=0.323;entryDx=0;entryDy=0;entryPerimeter=0;exitX=0.5;exitY=0.5;exitDx=0;exitDy=0;exitPerimeter=0;" edge="1" parent="1" source="Wr6ySs2WMsucKlqp8gCn-16" target="Wr6ySs2WMsucKlqp8gCn-4">
          <mxGeometry width="50" height="50" relative="1" as="geometry">
            <mxPoint x="280" y="280" as="sourcePoint" />
            <mxPoint x="330" y="230" as="targetPoint" />
          </mxGeometry>
        </mxCell>
        <mxCell id="Wr6ySs2WMsucKlqp8gCn-48" value="" style="endArrow=none;html=1;rounded=0;exitX=1;exitY=0.3333333333333333;exitDx=0;exitDy=0;exitPerimeter=0;entryX=0.342;entryY=0.115;entryDx=0;entryDy=0;entryPerimeter=0;" edge="1" parent="1" source="Wr6ySs2WMsucKlqp8gCn-17" target="Wr6ySs2WMsucKlqp8gCn-6">
          <mxGeometry width="50" height="50" relative="1" as="geometry">
            <mxPoint x="250" y="30" as="sourcePoint" />
            <mxPoint x="300" y="-20" as="targetPoint" />
          </mxGeometry>
        </mxCell>
        <mxCell id="Wr6ySs2WMsucKlqp8gCn-49" value="" style="endArrow=none;html=1;rounded=0;exitX=0.5;exitY=0.5;exitDx=0;exitDy=0;exitPerimeter=0;entryX=0;entryY=0;entryDx=0;entryDy=0;" edge="1" parent="1" source="Wr6ySs2WMsucKlqp8gCn-17" target="Wr6ySs2WMsucKlqp8gCn-4">
          <mxGeometry width="50" height="50" relative="1" as="geometry">
            <mxPoint x="250" y="30" as="sourcePoint" />
            <mxPoint x="300" y="-20" as="targetPoint" />
          </mxGeometry>
        </mxCell>
        <mxCell id="Wr6ySs2WMsucKlqp8gCn-57" value="" style="endArrow=none;html=1;rounded=0;exitX=0.5;exitY=0.5;exitDx=0;exitDy=0;exitPerimeter=0;entryX=0;entryY=0.5;entryDx=0;entryDy=0;" edge="1" parent="1" source="Wr6ySs2WMsucKlqp8gCn-16" target="Wr6ySs2WMsucKlqp8gCn-60">
          <mxGeometry width="50" height="50" relative="1" as="geometry">
            <mxPoint x="250" y="230" as="sourcePoint" />
            <mxPoint x="300" y="180" as="targetPoint" />
          </mxGeometry>
        </mxCell>
        <mxCell id="Wr6ySs2WMsucKlqp8gCn-58" value="Online Payment" style="ellipse;whiteSpace=wrap;html=1;" vertex="1" parent="1">
          <mxGeometry x="450" y="400" width="90" height="60" as="geometry" />
        </mxCell>
        <mxCell id="Wr6ySs2WMsucKlqp8gCn-59" value="Cash On delivery&amp;nbsp;" style="ellipse;whiteSpace=wrap;html=1;" vertex="1" parent="1">
          <mxGeometry x="520" y="270" width="90" height="60" as="geometry" />
        </mxCell>
        <mxCell id="Wr6ySs2WMsucKlqp8gCn-60" value="Make Order" style="ellipse;whiteSpace=wrap;html=1;" vertex="1" parent="1">
          <mxGeometry x="270" y="280" width="90" height="60" as="geometry" />
        </mxCell>
        <mxCell id="Wr6ySs2WMsucKlqp8gCn-61" value="" style="endArrow=none;html=1;rounded=0;entryX=0.5;entryY=0.5;entryDx=0;entryDy=0;entryPerimeter=0;exitX=1;exitY=0.5;exitDx=0;exitDy=0;" edge="1" parent="1" source="Wr6ySs2WMsucKlqp8gCn-2" target="Wr6ySs2WMsucKlqp8gCn-18">
          <mxGeometry width="50" height="50" relative="1" as="geometry">
            <mxPoint x="520" y="240" as="sourcePoint" />
            <mxPoint x="570" y="190" as="targetPoint" />
          </mxGeometry>
        </mxCell>
        <mxCell id="Wr6ySs2WMsucKlqp8gCn-62" value="" style="endArrow=none;html=1;rounded=0;entryX=0;entryY=1;entryDx=0;entryDy=0;entryPerimeter=0;exitX=1;exitY=0.5;exitDx=0;exitDy=0;" edge="1" parent="1" source="Wr6ySs2WMsucKlqp8gCn-13" target="Wr6ySs2WMsucKlqp8gCn-18">
          <mxGeometry width="50" height="50" relative="1" as="geometry">
            <mxPoint x="480" y="250" as="sourcePoint" />
            <mxPoint x="530" y="200" as="targetPoint" />
          </mxGeometry>
        </mxCell>
        <mxCell id="Wr6ySs2WMsucKlqp8gCn-63" value="" style="endArrow=none;html=1;rounded=0;exitX=0.5;exitY=0.5;exitDx=0;exitDy=0;exitPerimeter=0;entryX=0;entryY=0.5;entryDx=0;entryDy=0;" edge="1" parent="1" source="Wr6ySs2WMsucKlqp8gCn-16" target="Wr6ySs2WMsucKlqp8gCn-8">
          <mxGeometry width="50" height="50" relative="1" as="geometry">
            <mxPoint x="290" y="120" as="sourcePoint" />
            <mxPoint x="340" y="70" as="targetPoint" />
          </mxGeometry>
        </mxCell>
        <mxCell id="Wr6ySs2WMsucKlqp8gCn-64" value="" style="endArrow=none;html=1;rounded=0;entryX=0;entryY=0.5;entryDx=0;entryDy=0;" edge="1" parent="1" target="Wr6ySs2WMsucKlqp8gCn-11">
          <mxGeometry width="50" height="50" relative="1" as="geometry">
            <mxPoint x="80" y="160" as="sourcePoint" />
            <mxPoint x="340" y="70" as="targetPoint" />
          </mxGeometry>
        </mxCell>
        <mxCell id="Wr6ySs2WMsucKlqp8gCn-66" value="Dispatch Order" style="ellipse;whiteSpace=wrap;html=1;" vertex="1" parent="1">
          <mxGeometry x="369" y="470" width="90" height="60" as="geometry" />
        </mxCell>
        <mxCell id="Wr6ySs2WMsucKlqp8gCn-67" value="View Sales Report" style="ellipse;whiteSpace=wrap;html=1;" vertex="1" parent="1">
          <mxGeometry x="490" y="500" width="90" height="60" as="geometry" />
        </mxCell>
      </root>
    </mxGraphModel>
  </diagram>
</mxfile>
